<mxfile host="drawio-plugin" modified="2023-11-12T03:35:26.712Z" agent="5.0 (Windows NT 10.0; Win64; x64) AppleWebKit/537.36 (KHTML, like Gecko) Chrome/111.0.0.0 Safari/537.36" version="20.5.3" etag="MvaRYCJD851MLpSaCuv6" type="embed"><diagram id="TnrltDtkn4OXcQUdt04e" name="Page-1"><mxGraphModel dx="498" dy="674" grid="1" gridSize="10" guides="1" tooltips="1" connect="1" arrows="1" fold="1" page="1" pageScale="1" pageWidth="850" pageHeight="1100" math="0" shadow="0"><root><mxCell id="0"/><mxCell id="1" parent="0"/><mxCell id="2" value="" style="rounded=0;whiteSpace=wrap;html=1;" vertex="1" parent="1"><mxGeometry x="30" y="80" width="460" height="230" as="geometry"/></mxCell><mxCell id="3" value="前台：访问" style="text;html=1;resizable=0;autosize=1;align=center;verticalAlign=middle;points=[];fillColor=none;strokeColor=none;rounded=0;" vertex="1" parent="1"><mxGeometry x="15" y="30" width="80" height="30" as="geometry"/></mxCell><mxCell id="4" value="后端：作者写文章的地方&lt;br&gt;" style="text;html=1;resizable=0;autosize=1;align=center;verticalAlign=middle;points=[];fillColor=none;strokeColor=none;rounded=0;" vertex="1" parent="1"><mxGeometry x="15" y="360" width="160" height="30" as="geometry"/></mxCell><mxCell id="5" value="文章A" style="text;html=1;resizable=0;autosize=1;align=center;verticalAlign=middle;points=[];fillColor=none;strokeColor=none;rounded=0;" vertex="1" parent="1"><mxGeometry x="200" y="110" width="60" height="30" as="geometry"/></mxCell><mxCell id="7" value="文章A" style="text;html=1;align=center;verticalAlign=middle;resizable=0;points=[];autosize=1;strokeColor=none;fillColor=none;" vertex="1" parent="1"><mxGeometry x="200" y="180" width="60" height="30" as="geometry"/></mxCell><mxCell id="8" value="" style="rounded=0;whiteSpace=wrap;html=1;" vertex="1" parent="1"><mxGeometry x="35" y="430" width="440" height="240" as="geometry"/></mxCell><mxCell id="9" value="" style="rounded=1;whiteSpace=wrap;html=1;" vertex="1" parent="1"><mxGeometry x="35" y="440" width="120" height="190" as="geometry"/></mxCell><mxCell id="10" value="文章管理" style="rounded=0;whiteSpace=wrap;html=1;" vertex="1" parent="1"><mxGeometry x="35" y="470" width="120" height="60" as="geometry"/></mxCell><mxCell id="11" value="评论管理" style="rounded=0;whiteSpace=wrap;html=1;" vertex="1" parent="1"><mxGeometry x="35" y="550" width="120" height="60" as="geometry"/></mxCell><mxCell id="22" value="" style="edgeStyle=orthogonalEdgeStyle;rounded=0;orthogonalLoop=1;jettySize=auto;html=1;" edge="1" parent="1" source="14"><mxGeometry relative="1" as="geometry"><mxPoint x="370" y="760" as="targetPoint"/></mxGeometry></mxCell><mxCell id="24" value="" style="edgeStyle=orthogonalEdgeStyle;rounded=0;orthogonalLoop=1;jettySize=auto;html=1;" edge="1" parent="1" source="14" target="23"><mxGeometry relative="1" as="geometry"/></mxCell><mxCell id="14" value="文章A&amp;nbsp; &amp;nbsp; &amp;nbsp; &amp;nbsp; &amp;nbsp; &amp;nbsp; &amp;nbsp;编辑发布" style="rounded=0;whiteSpace=wrap;html=1;" vertex="1" parent="1"><mxGeometry x="210" y="470" width="220" height="60" as="geometry"/></mxCell><mxCell id="15" value="文章A&amp;nbsp; &amp;nbsp; &amp;nbsp; &amp;nbsp; &amp;nbsp; &amp;nbsp; &amp;nbsp; &amp;nbsp; &amp;nbsp; &amp;nbsp; &amp;nbsp; &amp;nbsp; &amp;nbsp; &amp;nbsp; 编辑发布" style="rounded=0;whiteSpace=wrap;html=1;" vertex="1" parent="1"><mxGeometry x="210" y="540" width="220" height="60" as="geometry"/></mxCell><mxCell id="16" value="文章编辑页面" style="rounded=0;whiteSpace=wrap;html=1;" vertex="1" parent="1"><mxGeometry x="300" y="760" width="150" height="110" as="geometry"/></mxCell><mxCell id="26" value="" style="edgeStyle=orthogonalEdgeStyle;rounded=0;orthogonalLoop=1;jettySize=auto;html=1;" edge="1" parent="1" source="17" target="25"><mxGeometry relative="1" as="geometry"/></mxCell><mxCell id="17" value="登录页面" style="rounded=0;whiteSpace=wrap;html=1;" vertex="1" parent="1"><mxGeometry x="15" y="760" width="185" height="110" as="geometry"/></mxCell><mxCell id="23" value="" style="shape=waypoint;sketch=0;size=6;pointerEvents=1;points=[];fillColor=default;resizable=0;rotatable=0;perimeter=centerPerimeter;snapToPoint=1;rounded=0;" vertex="1" parent="1"><mxGeometry x="390" y="730" width="40" height="40" as="geometry"/></mxCell><mxCell id="25" value="" style="shape=waypoint;sketch=0;size=6;pointerEvents=1;points=[];fillColor=default;resizable=0;rotatable=0;perimeter=centerPerimeter;snapToPoint=1;rounded=0;" vertex="1" parent="1"><mxGeometry x="15" y="530" width="40" height="40" as="geometry"/></mxCell></root></mxGraphModel></diagram></mxfile>